<?xml version="1.0" encoding="utf-8"?>
<!-- Generator: Adobe Illustrator 15.0.0, SVG Export Plug-In . SVG Version: 6.00 Build 0)  -->
<!DOCTYPE svg PUBLIC "-//W3C//DTD SVG 1.1//EN" "http://www.w3.org/Graphics/SVG/1.1/DTD/svg11.dtd">
<svg version="1.1" id="Layer_1" xmlns="http://www.w3.org/2000/svg" xmlns:xlink="http://www.w3.org/1999/xlink" x="0px" y="0px"
	 width="529px" height="529px" viewBox="0 0 529 529" enable-background="new 0 0 529 529" xml:space="preserve">
<g display="none">
	<defs>
		<rect id="SVGID_1_" x="-130" y="-130" width="800" height="800"/>
	</defs>
	<clipPath id="SVGID_2_" display="inline">
		<use xlink:href="#SVGID_1_"  overflow="visible"/>
	</clipPath>
	
		<linearGradient id="SVGID_3_" gradientUnits="userSpaceOnUse" x1="-130" y1="669.998" x2="-129" y2="669.998" gradientTransform="matrix(1009.4507 970.4529 970.4529 -1009.4507 -519221.8438 802263.875)">
		<stop  offset="0" style="stop-color:#97A6A0"/>
		<stop  offset="0.1993" style="stop-color:#E6E6E6"/>
		<stop  offset="0.5797" style="stop-color:#FFFFFF"/>
		<stop  offset="0.6993" style="stop-color:#E6E6E6"/>
		<stop  offset="1" style="stop-color:#97A6A0"/>
	</linearGradient>
	<polygon display="inline" clip-path="url(#SVGID_2_)" fill="url(#SVGID_3_)" points="254.249,-529.689 1069.689,254.249 
		285.751,1069.689 -529.69,285.751 	"/>
</g>
<g>
	<path fill="#666666" d="M369.736,144.322c49.656,13.715,64.245-14.007,65.258-16.081l-0.026-0.011
		c-17.267,23.893-66.717,7.231-74.071-5.517c-7.367-12.769-39.289-12.769-39.289-12.769c31.247-4.786,42.481-20.703,46.382-33.419
		c-1.685-0.526-3.503-0.974-5.416-1.347c-10.076,14.097-27.127,16.038-53.099,11.893c-8.65,6.59-15.53,14.656-21.105,21.201
		c-1.266,1.485-2.465,2.893-3.604,4.19c-1.582,1.802-2.929,3.406-4.117,4.823c-5.495,6.548-8.521,10.155-17.958,12.663
		c-10.443,2.775-18.476,2.949-18.812,2.955c-1.558,0.006-2.986-0.868-3.638-2.283c-0.653-1.415-0.408-3.083,0.626-4.25
		c1.132-1.278,22.268-25.041,43.999-42.549c-31.969,1.162-45.007,33.29-45.007,33.29c4.608-56.456,92.75-74.228,92.75-74.228
		C214.135,50,207.021,115.382,207.021,115.382c-3.456-27.075-23.043-36.293-23.043-36.293c4.032,13.25,2.88,43.206-2.881,61.065
		c-5.761,17.859-44.358,40.902-44.358,40.902c9.217,19.588-16.84,54.493-31.242,60.83c-10.677,4.698-18.879,5.996-18.879,5.996
		c10.371,16.706-10.199,35.821-10.199,35.821c3.456,19.284-13.42,44.256-13.42,44.256s42.518-35.319,51.358-39.74
		c8.841-4.42,36.834-6.384,37.816,10.805c0,0,24.065-25.047,23.573-38.307c0,0-4.42-6.384-2.946-10.314
		c1.473-3.928,15.225-16.189,21.609-20.608c6.384-4.42,19.153-3.456,25.538-1.492c6.384,1.965,8.348-10.313,8.839-13.751
		c0.492-3.438,0-11.787,7.859-11.296c7.857,0.492,10.313,3.438,14.242,2.947c3.929-0.491,23.844-10.313,25.428-14.242
		s0.11-17.189,8.459-19.644c8.35-2.456,88.892,0.981,69.738,101.169c21.609-38.307,6.876-96.258,6.876-96.258
		c72.193,20.135,41.744,97.24,41.744,97.24c5.401-9.822,20.136-56.479,3.93-92.546c-16.207-36.068-67.774-39.564-67.774-39.564
		C350.583,140.394,369.736,144.322,369.736,144.322 M184.263,179.045c0.156,0.885,0.459,4.084-1.72,10.136
		c-4.222,11.725-17.38,17.542-17.38,17.542s2.233-11.934,8.753-19.218c0.185-0.206,0.372-0.406,0.562-0.605
		c2.378-2.659,9.848-11.183,16.573-16.208C191.051,170.692,187.113,174.5,184.263,179.045"/>
	<path fill="#666666" d="M224.402,250.474c28.443,16.945,53.426,6.706,53.426,6.706c-19.648,22.718-38.073,17.125-53.789,28.255
		c-15.716,11.133-57.713,60.792-43.962,78.8c13.751,18.006,38.962,9.894,38.962,9.894c-31.432,20.953-59.916-1.639-59.916-1.639
		c-4.91,10.15-9.741,9.742-9.741,9.742c7.613-17.435-26.274-30.695-26.274-30.695c21.608,2.947,31.439-8.034,31.439-8.034
		c-8.555-2.367-10.812-8.172-10.812-8.172c6.875,0,17.375-0.202,23.502-3.438c26.029-13.752,41.596-66.56,32.082-73.631
		c-17.901-13.308-8.335-22.554-1.986-26.339c7.152-4.265,20.717-1,20.717-1S214.735,244.715,224.402,250.474"/>
	<path fill="#666666" d="M277.993,196.935c-13.534,9.825-24.427,14.398-27.834,13.426c-4.591-1.311-7.572-2.852-10.548-3.378
		c-6.338-1.118-7.847,7.711-8.16,14.735c-0.313,7.025-8.125,12.261-8.125,12.261C225.341,233.552,264.573,238.691,277.993,196.935"
		/>
	<path fill="#666666" d="M223.251,238.759c0,0,16.555,0,30.268-6.14c12.001-5.373,20.307-12.091,27.221-31.928
		c0,0-3.756,34.855,12.614,26.343c0,0,1.446,9.518-14.13,8.444c-4.675-0.322-10.372,4.66-0.71,8.01
		c9.649,3.345,2.698,8.903-2.687,10.417c-4.473,1.258-16.214,4.401-36.841-1.819C222.696,247.173,222,241.42,223.251,238.759"/>
	<path fill="#666666" d="M315.254,227.153c52.115,26.083-23.447,129.787-73.892,180.863
		c-63.111,63.902-21.508,110.665-21.508,110.665s-21.463-50.421,24.037-94.23c44.562-42.905,113.824-110.811,107.951-177.618
		c-5.873-66.808-58.228-72.097-64.691-70c-6.464,2.098-7.032,10.101-6.515,13.904c0.868,6.38,3.652,8.145,4.018,11.065
		c0.708,5.667-0.498,19.432,8.732,21.11C302.616,224.59,308.449,223.747,315.254,227.153"/>
	<path fill="#666666" d="M317.711,385.187c33.098-31.548,73.312-90,83.739-128.926c11.955-44.63-23.991-67.99-32.76-69.717
		c13.049,47.443-3.688,91.94-25.471,133.375c-13.411,25.51-27.394,48.547-45.62,68.946c-17.304,19.367-23.771,28.066-40.918,45.031
		C256.682,433.896,304.485,397.794,317.711,385.187"/>
	<path fill="#666666" d="M393.706,37.742C292.108,29.407,274.76,16.528,227.949,23.141c-68.833,9.725-68.796,69.581-67.942,81.916
		c1.822,26.352,5.156,45.545,5.156,45.545s11.569-12.003,11.569-18.044c0-6.042-5.832-10.463-5.814-36.704
		c0.011-15.878,13.713-52.236,54.227-63.8C276.314,17.449,321.986,34.057,393.706,37.742"/>
	<path fill="#666666" d="M508.7,138.261c-100.99-13.772-100.285-45.199-125.004-63.914c-20.729-15.694-50.869-15.614-78.636,0.12
		c-26.063,14.769-61.252,54.509-61.252,54.509s7.772-0.14,17.873-2.825c10.077-2.678,11.314-6.239,20.132-16.281
		c9.308-10.6,22.687-28.659,43.479-35.965c20.791-7.305,47.516-2.289,57.336,7.291c11.078,10.807,23.077,25.358,39.064,35.726
		C437.68,127.29,460.677,131.199,508.7,138.261"/>
	<path fill="#666666" d="M181.79,282.827c-5.311,29.361-35.491,42.745-51.249,50.574c-15.756,7.827-47.209,22.357-46.334,25.673
		c1.136,4.299,0.31,5.933-4.623,16.789c-5.327,11.722-3.968,23.38-3.968,23.38c-5.173-16.548,2.671-36.521,2.671-36.521
		c-23.753,17.738-25.182,37.906-25.182,37.906c3.369-28.928,25.212-46.324,50.424-58.031c25.212-11.705,60.652-23.455,71.891-53.379
		c8.355-22.242,3.79-38.435,10.33-47.881C181.882,249.749,184.57,267.455,181.79,282.827"/>
</g>
<rect x="-130" y="-130" display="none" fill="none" width="800" height="800"/>
</svg>
