<?xml version="1.0" encoding="utf-8"?>
<!-- Generator: Adobe Illustrator 15.0.0, SVG Export Plug-In . SVG Version: 6.00 Build 0)  -->
<!DOCTYPE svg PUBLIC "-//W3C//DTD SVG 1.1//EN" "http://www.w3.org/Graphics/SVG/1.1/DTD/svg11.dtd">
<svg version="1.1" id="Layer_1" xmlns="http://www.w3.org/2000/svg" xmlns:xlink="http://www.w3.org/1999/xlink" x="0px" y="0px"
	 width="529px" height="529px" viewBox="0 0 529 529" enable-background="new 0 0 529 529" xml:space="preserve">
<g display="none">
	<g display="inline">
		<defs>
			<rect id="SVGID_1_" x="-130" y="-130" width="800" height="800"/>
		</defs>
		<clipPath id="SVGID_2_">
			<use xlink:href="#SVGID_1_"  overflow="visible"/>
		</clipPath>
		
			<linearGradient id="SVGID_3_" gradientUnits="userSpaceOnUse" x1="-285.9119" y1="-108.0447" x2="-284.9119" y2="-108.0447" gradientTransform="matrix(1009.4507 970.4529 -970.4529 1009.4507 183515.4688 386301.3438)">
			<stop  offset="0" style="stop-color:#97A6A0"/>
			<stop  offset="0.1993" style="stop-color:#E6E6E6"/>
			<stop  offset="0.5797" style="stop-color:#FFFFFF"/>
			<stop  offset="0.6993" style="stop-color:#E6E6E6"/>
			<stop  offset="1" style="stop-color:#97A6A0"/>
		</linearGradient>
		<polygon clip-path="url(#SVGID_2_)" fill="url(#SVGID_3_)" points="254.249,-529.689 1069.689,254.249 285.751,1069.689 
			-529.69,285.751 		"/>
	</g>
</g>
<g>
	<path fill="#F2DC16" d="M369.736,144.322c49.656,13.715,64.245-14.007,65.258-16.081l-0.025-0.011
		c-17.268,23.893-66.717,7.23-74.071-5.518c-7.367-12.769-39.289-12.769-39.289-12.769c31.247-4.786,42.481-20.703,46.382-33.419
		c-1.685-0.526-3.503-0.974-5.416-1.347c-10.075,14.097-27.127,16.037-53.099,11.893c-8.649,6.59-15.53,14.656-21.104,21.201
		c-1.267,1.484-2.466,2.893-3.604,4.189c-1.582,1.803-2.929,3.406-4.117,4.823c-5.495,6.548-8.521,10.155-17.958,12.663
		c-10.442,2.775-18.476,2.949-18.812,2.955c-1.559,0.006-2.986-0.868-3.639-2.283s-0.407-3.083,0.626-4.25
		c1.133-1.278,22.269-25.041,43.999-42.549c-31.969,1.162-45.007,33.29-45.007,33.29c4.608-56.456,92.75-74.229,92.75-74.229
		C214.135,50,207.021,115.382,207.021,115.382c-3.456-27.074-23.043-36.293-23.043-36.293c4.032,13.25,2.88,43.206-2.881,61.065
		s-44.358,40.902-44.358,40.902c9.218,19.588-16.84,54.492-31.241,60.83c-10.678,4.697-18.879,5.995-18.879,5.995
		c10.37,16.706-10.199,35.821-10.199,35.821c3.456,19.284-13.42,44.257-13.42,44.257s42.518-35.319,51.357-39.74
		c8.841-4.421,36.834-6.385,37.816,10.805c0,0,24.064-25.047,23.573-38.308c0,0-4.42-6.384-2.946-10.313
		c1.473-3.928,15.225-16.189,21.609-20.608c6.384-4.42,19.152-3.456,25.537-1.491s8.349-10.313,8.84-13.751
		c0.491-3.438,0-11.787,7.858-11.297c7.857,0.492,10.313,3.438,14.242,2.947s23.844-10.312,25.428-14.242
		c1.584-3.929,0.11-17.188,8.459-19.644c8.351-2.456,88.893,0.98,69.738,101.169c21.609-38.307,6.876-96.258,6.876-96.258
		c72.192,20.135,41.744,97.239,41.744,97.239c5.4-9.821,20.136-56.479,3.93-92.546c-16.207-36.067-67.773-39.563-67.773-39.563
		C350.583,140.394,369.736,144.322,369.736,144.322 M184.263,179.045c0.156,0.886,0.459,4.084-1.72,10.137
		c-4.223,11.725-17.38,17.542-17.38,17.542s2.232-11.935,8.753-19.219c0.185-0.206,0.372-0.405,0.562-0.604
		c2.378-2.659,9.849-11.184,16.573-16.208C191.051,170.692,187.113,174.5,184.263,179.045"/>
	<path fill="#F2DC16" d="M224.402,250.474c28.443,16.944,53.427,6.706,53.427,6.706c-19.648,22.718-38.073,17.125-53.789,28.255
		c-15.717,11.133-57.713,60.792-43.962,78.8c13.751,18.006,38.962,9.895,38.962,9.895c-31.433,20.952-59.916-1.64-59.916-1.64
		c-4.91,10.15-9.741,9.742-9.741,9.742c7.613-17.435-26.274-30.695-26.274-30.695c21.608,2.947,31.439-8.033,31.439-8.033
		c-8.555-2.367-10.812-8.173-10.812-8.173c6.875,0,17.375-0.201,23.502-3.438c26.029-13.752,41.597-66.561,32.082-73.631
		c-17.9-13.309-8.335-22.555-1.985-26.34c7.151-4.265,20.717-1,20.717-1S214.735,244.715,224.402,250.474"/>
	<path fill="#F2DC16" d="M277.993,196.935c-13.534,9.825-24.428,14.397-27.834,13.426c-4.592-1.312-7.572-2.853-10.549-3.378
		c-6.338-1.118-7.847,7.711-8.159,14.734c-0.313,7.025-8.125,12.262-8.125,12.262C225.341,233.552,264.573,238.691,277.993,196.935"
		/>
	<path fill="#F2DC16" d="M223.251,238.759c0,0,16.555,0,30.268-6.14c12.001-5.373,20.308-12.091,27.222-31.928
		c0,0-3.757,34.854,12.613,26.343c0,0,1.446,9.519-14.13,8.444c-4.675-0.322-10.372,4.66-0.71,8.01
		c9.649,3.345,2.698,8.903-2.687,10.417c-4.474,1.258-16.215,4.401-36.842-1.819C222.696,247.173,222,241.42,223.251,238.759"/>
	<path fill="#F2DC16" d="M315.254,227.153c52.115,26.083-23.447,129.787-73.893,180.863
		c-63.11,63.902-21.508,110.665-21.508,110.665s-21.463-50.421,24.037-94.23c44.562-42.904,113.824-110.811,107.951-177.618
		s-58.229-72.097-64.691-70c-6.464,2.099-7.031,10.102-6.515,13.904c0.868,6.38,3.652,8.145,4.018,11.064
		c0.708,5.667-0.498,19.433,8.732,21.11S308.449,223.747,315.254,227.153"/>
	<path fill="#F2DC16" d="M317.711,385.187c33.098-31.548,73.312-90,83.738-128.926c11.955-44.631-23.99-67.99-32.76-69.718
		c13.049,47.443-3.688,91.94-25.471,133.376c-13.411,25.51-27.394,48.547-45.62,68.945c-17.304,19.367-23.771,28.066-40.918,45.031
		C256.682,433.896,304.485,397.795,317.711,385.187"/>
	<path fill="#F2DC16" d="M393.706,37.742C292.108,29.407,274.76,16.528,227.949,23.141c-68.833,9.725-68.797,69.581-67.942,81.916
		c1.822,26.352,5.156,45.545,5.156,45.545s11.568-12.003,11.568-18.044c0-6.042-5.832-10.463-5.813-36.704
		c0.011-15.878,13.713-52.236,54.227-63.8C276.314,17.449,321.986,34.057,393.706,37.742"/>
	<path fill="#F2DC16" d="M508.699,138.261C407.71,124.489,408.414,93.062,383.696,74.347c-20.729-15.694-50.868-15.614-78.636,0.119
		c-26.062,14.77-61.252,54.51-61.252,54.51s7.772-0.141,17.873-2.825c10.077-2.678,11.314-6.239,20.132-16.281
		c9.309-10.6,22.688-28.659,43.479-35.965c20.791-7.305,47.516-2.289,57.336,7.291c11.078,10.807,23.076,25.358,39.063,35.726
		C437.68,127.29,460.677,131.199,508.699,138.261"/>
	<path fill="#F2DC16" d="M181.79,282.827c-5.312,29.361-35.491,42.745-51.249,50.574c-15.756,7.827-47.209,22.357-46.334,25.673
		c1.136,4.299,0.31,5.934-4.623,16.789c-5.327,11.723-3.968,23.38-3.968,23.38c-5.174-16.548,2.671-36.521,2.671-36.521
		c-23.753,17.738-25.183,37.906-25.183,37.906c3.369-28.929,25.212-46.324,50.424-58.031c25.213-11.705,60.652-23.455,71.892-53.379
		c8.354-22.242,3.79-38.436,10.33-47.882C181.882,249.749,184.57,267.455,181.79,282.827"/>
</g>
<rect x="-130" y="-130" display="none" fill="none" width="800" height="800"/>
</svg>
