<?xml version="1.0" encoding="utf-8"?>
<!-- Generator: Adobe Illustrator 15.0.0, SVG Export Plug-In . SVG Version: 6.00 Build 0)  -->
<!DOCTYPE svg PUBLIC "-//W3C//DTD SVG 1.1//EN" "http://www.w3.org/Graphics/SVG/1.1/DTD/svg11.dtd">
<svg version="1.1" id="dnd" xmlns="http://www.w3.org/2000/svg" xmlns:xlink="http://www.w3.org/1999/xlink" x="0px" y="0px"
	 width="300px" height="300px" viewBox="0 0 300 300" enable-background="new 0 0 300 300" xml:space="preserve">
<path id="monk" display="none" fill-rule="evenodd" clip-rule="evenodd" fill="#27AAE1" d="M90.02,119.527
	c-6.762-16.462-6.777-42.827-0.784-60.129c3.512-0.41,6.912-0.931,10.719-1.046c-1.643-3.5-4.33-5.953-6.013-9.411
	c5.195-10.056,13.031-18.864,20.392-25.882c-0.594,9.643-1.252,20.954,3.137,27.189c1.02,1.449,5.266,4.762,7.059,5.751
	c2.824,1.558,6.861,2.34,10.457,2.875c0.358,1.646,0.852,3.157,1.046,4.967c0.759,0.287,1.855,0.236,2.614,0.523
	c0.667-2.122,0.488-5.088,0.784-7.582c4.048-2.487,6.312-6.761,7.32-12.287c2.179,0,4.356,0,6.536,0
	c1.088,5.36,2.992,9.904,7.319,12.025c0.088,2.701,0.436,5.142,0.522,7.843c0.832-0.214,1.927-0.167,2.616-0.523
	c0.668-1.422,0.775-3.407,1.307-4.967c8.061-0.566,12.646-4.608,17.516-8.366c3.35-7.18,4.492-17.43,3.137-27.188
	c1.129-0.186,1.73,1.154,2.354,1.83c2.32,2.515,4.922,5.306,7.32,8.104c2.996,3.496,6.436,7.574,8.889,11.503
	c6.545,10.485,9.523,23.742,10.98,39.214c-4.318,1.435-8.504,3-12.811,4.444c3.982,1.158,8.629,1.653,12.811,2.614
	c-0.801,30.136-13.824,48.048-29.543,63.267c-0.375-3.094,1.125-5.983,1.309-8.627c0.848-12.276-4.551-22.047-10.197-28.497
	c-2.641-1.367-6.564-1.452-10.719-1.307c-1.262-0.394-1.203-2.107-2.09-2.875c-0.793,1.807-2.827,3.758-3.923,6.536
	c-0.314,0.796-0.112,1.795-0.523,2.614c-0.607,1.211-2.996,2.479-3.398,4.444c-0.137,0.667,0.197,1.746,0.262,2.876
	c0.268,4.657-0.001,10.432,0.262,16.209c0.25,5.508-1.165,12.642,0.262,16.47c0.627,1.687,3.125,2.402,3.659,4.183
	c-2.716,2.269-2.641,6.069-2.876,11.241c-0.976,21.489-0.262,43.713-0.262,66.143c0,4.945-0.877,10.404-0.261,14.117
	c0.253,1.526,1.53,1.912,1.568,3.137c-2.917,0.045-3.629,2.297-4.706,4.183c-2.83,0.525-5.273,0.525-8.104,0
	c-1.066-1.81-1.724-4.027-4.445-4.183c-1.135-0.47,1.167-1.71,1.309-2.614c-1.116-24.195,0.636-54.146-0.523-80.521
	c-0.207-4.707-0.074-9.216-2.876-11.503c0.678-1.85,2.667-2.387,3.66-3.922c0.736-10.688,0.046-22.658,0.522-32.678
	c0.046-0.955,0.447-2.208,0.262-3.137c-0.335-1.686-2.641-2.932-3.398-4.444c-0.337-0.672-0.285-1.717-0.523-2.353
	c-1.02-2.725-3.029-4.677-3.66-6.797c-1.195,0.459-1.077,2.233-2.091,2.875c-4.249-0.152-8.255-0.063-10.979,1.307
	c-5.729,6.352-10.713,15.98-10.196,27.973c0.128,2.968,1.624,5.836,1.308,9.15c-7.777-7.996-15.565-15.981-20.653-26.666
	c2.216-4.581,4.806-8.788,7.059-13.333C97.125,116.001,93.782,117.974,90.02,119.527z"/>
<path id="bard" display="none" fill-rule="evenodd" clip-rule="evenodd" fill="#27AAE1" d="M163.884,27.734
	c2.734,0.477,3.643-0.873,4.354-2.419c2.516,2.166,1.051,5.197-0.968,7.017c-0.818-0.688-1.14-1.238-0.726-2.662
	c-0.888,0-1.774,0-2.661,0c-0.188,1.72,0.365,2.699,0.241,4.355c3.158,0.335,5.523-0.122,6.049-2.419
	c2.512,2.163,1.028,5.175-0.968,7.017c-0.818-0.688-1.14-1.238-0.726-2.662c-1.452,0-2.903,0-4.355,0
	c-0.158,1.933,0.214,3.334,0.242,5.081c2.111,0.256,2.376-1.334,3.146-2.419c2.559,2.122,1.026,5.221-0.968,7.016
	c-1.118-0.544-0.698-1.677-0.968-2.661c-2.47-0.166-0.677,3.64-0.968,5.081c2.539,0.442,3.114-1.08,3.871-2.419
	c2.559,2.123,1.026,5.221-0.968,7.017c-0.818-0.688-1.14-1.238-0.726-2.662c-0.646,0-1.291,0-1.936,0
	c-0.145,6.065-3.825,8.595-5.807,12.823c1.226,28.049,1.854,58.627,3.145,86.375c0.112,2.414-0.423,5.386,0.242,7.5
	c0.518,1.645,2.398,3.406,3.629,5.323c1.208,1.88,2.285,3.862,3.388,5.564c2.364,3.651,5.309,7.259,7.017,10.646
	c1.984,3.937,3.095,9.062,4.839,13.791c1.66,4.503,3.976,8.984,5.08,13.307c0.829,3.241,1.044,7.242,1.694,10.888
	c0.657,3.684,1.857,6.956,1.936,10.403c0.056,2.515-0.812,6.058-1.21,9.436c-0.389,3.29-0.163,6.801-0.968,9.679
	c-0.787,2.813-3.173,5.577-4.597,8.226c-1.521,2.828-2.495,5.66-4.355,8.468c-7.127,4.241-20.501,6.039-33.872,5.081
	c-8.192-0.587-13.938-2.53-19.113-5.081c-2.191-4.809-4.16-8.089-6.533-12.581c-0.673-1.275-1.833-2.883-2.178-4.112
	c-0.826-2.954-0.605-6.629-0.967-9.679c-0.398-3.363-1.236-6.41-1.21-9.193c0.031-3.326,1.284-7.009,1.936-10.646
	c0.647-3.622,0.831-7.514,1.693-10.888c1.103-4.316,3.369-8.843,5.081-13.549c1.678-4.611,2.931-9.821,4.839-13.549
	c1.745-3.41,4.644-7.238,7.017-10.888c1.092-1.679,2.449-3.471,3.629-5.322c1.426-2.24,3.373-4.222,3.629-6.774
	c0.182-1.809-0.08-3.751,0-5.565c1.126-25.61,1.723-53.114,2.903-79.116c0.103-2.244,0.593-5.474,0.242-7.5
	c-0.734-4.249-6.55-6.706-5.565-13.065c-0.645,0-1.289,0-1.936,0c-0.269,0.984,0.151,2.117-0.967,2.662
	c-2.021-1.885-3.322-4.522-1.21-7.017c1.153,0.944,1.276,2.917,3.871,2.419c0.224-0.982,1.495-4.994-0.483-5.081
	c-0.889,0.577,0.15,2.229-1.211,2.661c-1.994-1.859-3.365-4.566-1.209-7.016c1.117,0.738,1.074,2.635,3.145,2.419
	c0.516-1.259,0.507-3.042,0.484-4.839c-0.892-0.56-2.818-0.084-4.113-0.242c-0.27,0.984,0.15,2.117-0.967,2.662
	c-1.996-1.859-3.367-4.566-1.211-7.017c0.936,1.888,2.71,2.937,6.049,2.419c0.393-1.139,0.494-2.571,0.484-4.113
	c-0.336-0.552-1.684-0.09-2.42-0.242c-0.27,0.984,0.15,2.117-0.967,2.662c-1.996-1.859-3.367-4.566-1.211-7.017
	c1.125,1.133,1.519,2.999,4.355,2.419c0.549-0.257,0.092-1.521,0.242-2.177c2.631-3.579,6.592-5.828,11.13-7.5
	c2.727,0.66,4.582,2.192,7.258,2.903c1.471,1.513,2.758,3.21,4.355,4.597C163.884,26.282,163.884,27.008,163.884,27.734z
	 M141.141,202.66c-0.259,0.399-2.408,4.512-1.936,8.952c1.84,17.272,28.464,13.981,26.614-3.388
	c-0.787-7.385-7.403-12.475-15.243-11.371C146.104,197.482,142.946,199.868,141.141,202.66z M126.865,212.096
	c-0.385,3.139-0.217,7.883,1.211,10.646c2.595,5.025,9.833,7.431,10.887,13.307c0.934,5.207-1.06,10.246-7.5,8.469
	c0.04-1.008,0.084-2.02-0.484-2.42c-5.497-0.819-2.883,4.445-0.726,5.081c5.39,1.588,10.179-2.234,10.888-5.564
	c2.604-12.231-10.77-14.972-13.549-23.227c-1.484-4.411,1.115-10.023,3.387-12.34c0.041,0.362-0.086,0.894,0.242,0.968
	c-0.142-1.108,1.693-2.552,0.727-2.903C129.582,206.119,127.316,208.428,126.865,212.096z M174.529,207.015
	c0.041-0.361-0.087-0.893,0.241-0.968c2.116,2.572,4.581,8.503,3.146,12.581c-2.898,8.237-16.175,10.646-13.549,22.985
	c0.691,3.247,5.233,7.23,10.888,5.564c2.23-0.657,4.595-5.967-0.726-5.081c-0.783,0.267-0.178,1.92-0.727,2.42
	c-6.294,1.753-8.328-3.515-7.258-8.71c1.166-5.663,8.477-8.397,10.888-13.065c3.198-6.192,1.294-16.449-4.355-18.388
	C173.769,205.033,173.958,206.215,174.529,207.015z M138.963,253.227c-0.562,1.454-0.082,3.949-0.242,5.807
	c9.113,0,18.227,0,27.34,0c0-1.936,0-3.871,0-5.807C157.028,253.227,147.996,253.227,138.963,253.227z"/>
<g id="clerik" display="none">
	<path display="inline" fill-rule="evenodd" clip-rule="evenodd" fill="#27AAE1" d="M143.376,94.258
		c1.02,1.161,0.958,3.405,1.211,5.332c2.976,0.417,5.842,0.943,7.997,2.181c2.364-1.352,3.563-3.868,5.573-5.573
		c-0.986,2.521-1.248,4.362-2.423,6.785c1.986,2.375,4.651,4.072,6.3,6.785c2.476-0.837,4.858-1.765,7.513-2.423
		c-1.978,1.658-3.697,3.573-5.816,5.089c0.688,2.786,1.741,5.206,1.939,8.481c2.723,0.888,5.22,0.56,7.512,1.938
		c-2.816,0.091-4.581,1.235-7.512,1.211c-0.513,2.961-1.124,5.823-2.424,7.997c2.086,2.24,4.567,3.879,6.059,5.816
		c-2.53-0.782-5.115-1.508-7.513-2.423c-2.331,1.545-3.581,4.173-6.3,5.331c0.752,2.802,1.697,5.411,2.665,7.997
		c-2.281-1.677-3.556-4.36-5.815-6.059c-1.169,0.286-2.315,0.594-3.393,0.97c-0.629,3.106,0.826,7.475,0,10.904
		c-0.272,1.128-1.396,1.57-1.696,2.666c-0.397,1.447,0.122,4.129,0.242,6.785c0.521,11.479-0.032,21.834,0.484,33.198
		c0.503,11.071-0.818,22.715,0.243,31.987c0.366,3.204,2.277,5.301,2.666,7.512c0.659,3.752-0.381,7.982,0.242,10.663
		c-3.091,1.117-4.685,4.484-8.481,3.877c-2.659-0.426-3.938-3.086-6.543-3.877c0.58-2.658-0.336-6.702,0.243-10.42
		c0.368-2.367,2.379-4.58,2.666-7.755c0.918-10.166-0.41-22.256,0.484-33.198c0.809-9.893-0.216-20.837,0.243-31.261
		c0.137-3.111,0.618-5.712,0.242-7.27c-0.283-1.176-1.402-1.594-1.696-2.666c-0.926-3.375,0.704-7.84,0-10.904
		c-0.714-0.74-2.162-0.747-3.15-1.212c-2.573,1.466-3.693,4.384-6.058,6.059c1.004-2.469,1.781-5.166,2.666-7.755
		c-2.341-1.536-4.107-3.647-6.058-5.573c-2.502,0.809-5.078,1.545-7.512,2.423c-0.758-0.69,2.191-1.994,2.666-2.423
		c1.079-0.978,1.731-2.644,3.15-3.15c-1.009-2.383-2.107-4.678-2.181-7.997c-2.65-0.42-4.944-1.195-7.754-1.454
		c1.853-1.135,4.613-1.364,7.27-1.696c0.686-2.869,1.178-5.93,2.181-8.481c-1.913-1.722-3.616-3.654-5.816-5.089
		c2.197-0.001,5.639,1.544,7.27,2.181c2.052-2.31,4.175-4.549,6.543-6.543c-0.96-2.189-1.582-4.719-2.423-7.027
		c1.936,1.7,3.266,4.004,5.331,5.573c2.323-1.069,5.016-1.769,7.997-2.181C142.881,97.963,143.167,96.149,143.376,94.258z"/>
	<path display="inline" fill-rule="evenodd" clip-rule="evenodd" fill="#27AAE1" d="M169.306,154.113
		c9.744-10.112,15.401-27.799,10.178-44.588c-4.926-15.832-17.739-28.751-40.227-27.141c-16.212,1.162-27.34,13.536-31.502,27.141
		c-5.152,16.838,0.472,34.982,10.178,44.346c-4.704,7.25-9.972,13.937-14.782,21.082c1.524-6.149,2.862-14.585,2.666-23.264
		c-3.198-5.667-3.776-12.029-6.785-17.205c-1.103-1.896-4.092-4.026-6.058-5.816c-4.155-3.783-8.099-7.346-14.055-9.208
		c3.32-1.794,7.003-1.229,10.178-2.423c4.423-1.664,7.428-5.926,11.632-7.512c0.899-2.966,3.967-5.081,5.089-8.239
		c1.179-3.319,0.773-7.029,2.181-10.663c-1.065-4.347-2.137-8.687-2.908-13.328c3.291,0.353,5.977,2.936,9.451,3.15
		c1.436,0.088,3.611-0.601,5.574-0.969c5.47-1.027,10.198-2.958,14.055-5.089c1.267-4.063,4.614-8.178,5.816-12.843
		c1.151-4.466,1.073-9.629,1.696-14.54c0.603-4.745,1.348-9.529,1.696-14.297c2.694,9.058,1.609,19.438,3.877,28.595
		c1.193,4.819,4.59,8.81,5.573,13.085c4.076,1.932,8.266,3.962,14.297,5.089c1.813,0.339,3.965,1.017,5.332,0.969
		c3.634-0.125,6.289-2.773,9.692-3.15c-0.785,4.545-1.754,8.908-2.907,13.085c1.471,7.823,2.846,14.184,7.27,18.901
		c3.127,3.334,8.052,4.418,11.39,7.754c3.743,0.376,6.654,1.584,10.42,1.938c-2.252,2.019-5.107,2.329-7.513,3.877
		c-4.761,3.066-7.968,8.222-12.601,11.389c-0.892,2.668-1.931,5.625-3.15,8.724c-1.082,2.75-2.927,5.585-3.393,8.239
		c-1.566,8.918,1.163,16.448,2.666,23.506C179.321,168.814,174.306,160.826,169.306,154.113z"/>
</g>
<path id="druid" display="none" fill-rule="evenodd" clip-rule="evenodd" fill="#27AAE1" d="M222.594,44.995
	c-13.438-1.706-23.463-6.827-38.486-6.945c-1.264-0.395-0.617,1.121-1.736,0.868c-14.256-0.066-27.629,1.971-38.488,6.945
	c-14.46,6.624-25.843,19.784-28.648,35.882c-3.87,22.212,12.786,35.435,25.176,44.274c2.122,0,4.244,0,6.366,0
	c3.748,4.835,0.07,14.097,0.289,20.835c1.008,1.019,2.105,1.945,3.184,2.894c0.286,27.796-0.506,59.24,0.578,88.549
	c3.766-0.888,6.696-6.585,8.682-9.26c-1.811-5.072,2.451-7.899,1.447-12.443c0.121-1.728,1.51-0.403,2.025-1.736
	c-2.596-3.832-7.365-6.826-6.076-13.601c1.787-0.597,4.316,0.424,6.365,1.157c-1.178-2.381-5.373-7.36-4.629-11.864
	c0.652-3.956,4.922-3.957,8.102-1.736c2.08-2.194-0.518-7.091-0.289-11.574c0.365-7.177,5.918-13.671,9.549-5.788
	c5.057-3.436,5.713-15.373,13.021-16.205c1.219-0.139,3.172,0.206,4.342,1.158c4.424,3.603,4.664,16.65,4.629,23.149
	c1.463,0.87,2.5,0.201,4.92,0.579c5.984,10.125-5.693,18.253-11.574,23.149c3.139,1.343,6.039,3.269,5.498,6.945
	c-0.963,6.518-12.799,5.294-17.652,6.945c-0.184,1.35,1.975,1.153,2.025,2.894c0.047,1.623-2.988,2.984-4.92,4.341
	c-1.635,1.147-3.561,3.134-5.209,4.051c-2.604,1.449-7.85,4.007-9.26,0.868c-1.871,6.343-7.498,7.695-10.997,12.732
	c1.344,6.665,3.161,19.963-3.762,22.571c-3.346,1.261-6.7,0.073-11.574,0.868c-1.846-4.521-7.035-5.697-9.84-9.26
	c0.139-2.538-0.187-4.844,0-6.945c0.141-1.563,0.288-3.893,0.869-5.209c0.853-1.933,3.652-2.812,4.629-4.919
	c2.131-4.593-0.023-9.255,0.869-15.626c-4.436-3.667-8.771-7.435-12.732-11.575c-0.932-0.063-1.225,0.512-2.315,0.289
	c-3.817-1.241-7.883-4.287-11.286-6.655c-3.109-2.166-7.396-4.359-2.604-6.945c-4.803-2.223-16.702-0.575-17.941-6.944
	c-0.681-3.499,1.914-6.204,5.498-6.945c-5.382-5.359-17.679-12.725-11.575-23.439c2.475-0.185,3.067-0.08,4.919-0.289
	c-0.228-6.141,0.373-19.389,4.34-23.15c0.921-0.873,3.064-1.544,4.341-1.447c7.796,0.598,7.97,12.017,13.021,16.205
	c2.08-1.716,2.981-5.371,6.367-3.183c1.98,1.28,3.364,5.709,3.473,9.549c0.119,4.262-2.129,8.663-0.579,10.997
	c2.55-0.228,4.323-3.082,6.944-1.158c4.27,3.134-1.129,12.214-3.183,14.469c1.345,0.174,4.397-1.628,6.366-0.868
	c1.178,6.57-3.173,9.882-6.076,13.312c0.201,1.699,1.704,0.35,2.025,1.736c-1.051,4.959,3.938,8.924,0.867,13.312
	c1.467,0.594,0.887,2.233,1.736,3.472c1.646,2.397,5.055,3.938,8.104,5.209c0.553-13.897-0.869-30.111-0.869-45.143
	c0-0.675,0.234-1.351,0.289-2.025c0.517-6.306-1.073-14.419,0.29-19.099c0.644-2.209,3.144-4.065,5.209-5.498
	c-0.811-3.313,0.674-5.319-0.29-7.813c-0.982-2.544-5.347-4.093-8.392-5.788c-8.62-4.799-17.55-11.566-22.571-19.677
	c-5.502-8.888-9.315-25.551-5.787-40.223c4.985-20.732,20.669-34.117,37.329-43.406c10.065-3.357,20.562-6.108,34.437-5.498
	c10.834,0.477,20.557,1.219,28.936,4.341c3.076,1.146,5.584,3.451,8.682,4.919C214.939,37.396,219.811,40.309,222.594,44.995z"/>
<g id="Fighter" display="none">
	<path display="inline" fill-rule="evenodd" clip-rule="evenodd" fill="#27AAE1" d="M55.228,35.614
		c-3.017,1.92-5.485,4.388-7.405,7.405c0-2.468,0-4.937,0-7.405C50.291,35.614,52.759,35.614,55.228,35.614z"/>
	<path display="inline" fill-rule="evenodd" clip-rule="evenodd" fill="#27AAE1" d="M55.228,35.614c0.449,0,0.897,0,1.347,0
		c0.789,2.352,2.6,3.683,2.692,6.732C69.323,49.792,77.903,58.715,85.521,68.6c-0.018-2.139,3.482-2.285,4.039-2.692
		c4.324-3.167,6.371-9.115,12.117-11.444c2.553,0.364,1.648,4.187,2.693,6.059c-8.28-1.323-8.208,5.705-12.117,8.751
		c-0.104,1.675,1.057,2.084,1.346,3.366c6.766,2.209,9.342,8.609,14.137,12.791c0,6.507,0,13.015,0,19.522
		C100.038,97.39,90.219,91.95,85.521,81.39c-5.844-2.107-13.035,2.687-12.791,10.771c-1.958-0.735-4.755-0.63-6.059-2.02
		c0.501-8.042,12.659-7.204,10.771-15.483c0.897,0,1.795,0,2.692,0c-7.228-10.275-19-16.004-24.908-27.601
		c-3.503,0.138-4.907-1.825-7.405-2.692c0-0.449,0-0.898,0-1.347C49.743,40.002,52.211,37.534,55.228,35.614z"/>
	<path display="inline" fill-rule="evenodd" clip-rule="evenodd" fill="#27AAE1" d="M252.47,72.639c0,0.673,0,1.347,0,2.02
		c-8.779,22.188-24.578,37.354-49.143,43.757c12.675-9.703,11.252-38.931-2.692-43.757c-9.437,3.355-14.337,14.831-21.542,18.176
		c0-2.917,0-5.834,0-8.751c13.329-11.129,19.781-29.137,37.025-36.352c3.552,3.06,4.401,5.109,2.019,10.098
		C226.599,65.749,235.012,73.716,252.47,72.639z"/>
	<path display="inline" fill-rule="evenodd" clip-rule="evenodd" fill="#27AAE1" d="M109.082,65.907
		c6.652,8.699,29.233,13.491,34.332,0c5.265,13.689,28.692,7.888,34.332,0.673c-1.81,35.976,2.419,80.008,0,113.768
		c-1.785,24.932-23.529,29.108-33.659,45.776c-6.623-9.041-15.866-14.219-24.234-22.215c-6.599-6.307-9.995-14.623-10.771-28.273
		C107.291,144.13,110.441,97.768,109.082,65.907z"/>
	<path display="inline" fill-rule="evenodd" clip-rule="evenodd" fill="#27AAE1" d="M107.063,155.44
		c4.156,11.944-6.104,16.873-12.791,23.561c-9.398,9.399-17.454,17.454-26.927,26.927c-3.563,3.564-10.194,13.614-13.463,13.464
		c-0.877-0.039-4.331-1.396-4.712-4.712c-0.471-4.089,11.195-11.867,14.137-14.81C77.955,185.221,94.826,167.901,107.063,155.44z"/>
	<path display="inline" fill-rule="evenodd" clip-rule="evenodd" fill="#27AAE1" d="M179.093,173.616
		c-0.246-4.285,1.197-6.881,0.673-11.444c1.847-1.356,4.544,3.052,6.732,5.385c6.543,6.978,13.756,14.139,20.868,21.543
		c9.903,10.308,19.269,21.107,26.928,32.312C213.394,210.672,197.128,189.464,179.093,173.616z"/>
</g>
<g id="brabarian" display="none">
	<path display="inline" fill-rule="evenodd" clip-rule="evenodd" fill="#27AAE1" d="M14.593,68.134c0-1.42,0-2.84,0-4.261
		c4.596-7.94,9.004,3.132,11.185,7.989c11.75,26.174,25.193,42.582,56.456,48.466c3.311,0.625,10.934,3.339,14.912,2.664
		c3.253-0.553,6.429-4.701,9.587-6.924c3.386-2.383,6.312-4.832,10.651-5.326c3.713,20.786,7.797,41.202,12.25,61.249
		c0.353-25.21-0.709-51.837,0.532-76.161c10.685-3.716,32.145-4.21,42.077,0.532c0.352,24.854-0.71,51.129,0.532,75.097
		c3.833-20.667,7.528-41.471,12.248-61.25c8.362,1.387,13.062,11.855,20.24,12.783c3.31,0.427,9.661-1.67,14.91-2.664
		c31.925-6.039,45.087-23.92,56.456-49.531c1.125-2.531,3.81-11.306,8.521-9.586c3.901,1.422,1.282,11.753,0.535,15.977
		c-7.241,40.798-23.34,68.545-59.652,78.292c3.011,7.463,5.524,15.424,7.456,23.967c-38.411,23.865-127.166,23.473-165.105-0.533
		c2.147-8.148,4.432-16.161,7.456-23.434C36.662,145.13,20.281,111.978,14.593,68.134z"/>
	<path display="inline" fill-rule="evenodd" clip-rule="evenodd" fill="#27AAE1" d="M235.089,191.696c0,10.829,0,21.66,0,32.489
		c-25.567,25.869-87.777,31.377-132.084,18.641c-14.442-4.151-28.759-8.714-36.216-18.641c0-10.829,0-21.66,0-32.489
		C108.639,213.081,193.521,214.008,235.089,191.696z M77.44,223.652c8.441,0.054,7.913-21.109-1.065-18.642
		C69.745,206.835,69.742,223.604,77.44,223.652z M224.97,223.652c7.471-0.666,7.005-21.409-2.13-18.642
		C216.217,207.019,216.683,224.392,224.97,223.652z M106.2,235.37c12.611,3.894,15.738-19.82,2.664-19.173
		C98.346,216.717,97.83,232.786,106.2,235.37z M195.68,235.37c8.812-2.722,7.078-20.172-3.198-19.173
		C178.659,217.54,184.409,238.85,195.68,235.37z M150.939,239.099c12.454,0,13.422-21.255-0.532-20.24
		C136.494,219.871,139.48,239.099,150.939,239.099z"/>
	<path display="inline" fill-rule="evenodd" clip-rule="evenodd" fill="#27AAE1" d="M76.375,205.011
		c8.978-2.468,9.506,18.695,1.065,18.642C69.742,223.604,69.745,206.835,76.375,205.011z"/>
	<path display="inline" fill-rule="evenodd" clip-rule="evenodd" fill="#27AAE1" d="M222.84,205.011
		c9.135-2.768,9.601,17.976,2.13,18.642C216.683,224.392,216.217,207.019,222.84,205.011z"/>
	<path display="inline" fill-rule="evenodd" clip-rule="evenodd" fill="#27AAE1" d="M108.864,216.197
		c13.074-0.647,9.947,23.066-2.664,19.173C97.83,232.786,98.346,216.717,108.864,216.197z"/>
	<path display="inline" fill-rule="evenodd" clip-rule="evenodd" fill="#27AAE1" d="M192.481,216.197
		c10.276-0.999,12.011,16.451,3.198,19.173C184.409,238.85,178.659,217.54,192.481,216.197z"/>
	<path display="inline" fill-rule="evenodd" clip-rule="evenodd" fill="#27AAE1" d="M150.407,218.858
		c13.954-1.015,12.986,20.24,0.532,20.24C139.48,239.099,136.494,219.871,150.407,218.858z"/>
</g>
<path id="paladin" display="none" fill-rule="evenodd" clip-rule="evenodd" fill="#27AAE1" d="M66.518,121.754
	c0-0.188,0-0.376,0-0.564c0.331,0.046,0.238,0.515,0.282,0.847c0.939-0.078-0.511-4.626-0.847-6.491
	c-0.449-2.499-0.722-5.211-1.129-7.62c-0.848-5.023-2.688-10.541-2.54-15.24c0.119-3.765,2.275-7.729,3.387-11.289
	c1.244-3.984,2.683-7.615,3.104-11.571c2.511,6.426,3.242,14.632,5.927,20.884c0.488-4.406-0.808-8.795-1.693-13.264
	c-0.855-4.313-2.814-9.116-2.54-12.982c0.346-4.871,4.292-7.616,5.08-12.417c2.876-2.11,5.423-4.549,8.467-6.491
	c3.262-6.616,7.761-11.995,7.62-22.013c-0.08-0.504,0.267-0.579,0.282-0.282c-0.239,4.48,0.746,8.698,0.564,12.982
	C91.85,51.183,82.69,60.675,83.734,75.47c0.268,3.804,1.446,7.675,2.258,11.571c0.742,3.559,0.739,7.92,2.258,11.571
	c1.063,2.557,4.04,4.863,5.926,7.056c2.08,2.417,3.908,4.728,5.927,7.056c3.019,0.71,7.467,2.19,11.007,1.129
	c2.077-0.623,2.729-3.037,3.951-4.233c2.048,1.338,3.67,3.103,5.362,4.798c3.362-5.759,7.457-10.101,12.135-14.958
	c5.227-5.426,10.187-10.07,12.136-18.344c1.066-0.58,0.509,1.241,0.564,1.411c0.872,2.688,2.741,6.836,4.233,9.031
	c3.939,5.794,10.769,10.196,15.24,15.805c1.696,2.128,2.449,4.682,4.233,6.773c1.995-1.297,3.258-3.328,5.362-4.516
	c1.032,1.602,2.23,3.038,3.669,4.233c4.515-0.056,7.818,0.599,10.725-0.847c2.404-1.196,4.279-4.805,6.209-7.056
	c2.265-2.643,4.378-4.844,6.209-7.056c1.049-8.836,3.891-14.874,4.515-23.142c1.057-13.979-7.91-25.256-8.748-38.947
	c-0.283-4.614,0.832-8.679,0.564-13.264c-0.08-0.504,0.267-0.579,0.282-0.282c0.085,6.878,1.635,11.419,4.232,16.086
	c1.176,2.111,2.308,4.637,3.387,5.927c2.357,2.816,5.944,4.187,8.467,6.773c0.778,4.691,4.621,7.528,5.08,12.135
	c0.386,3.867-1.655,8.575-2.54,12.982c-0.898,4.479-1.862,8.98-1.976,13.546c1.362-1.064,1.552-3.166,1.976-4.797
	c1.271-4.896,2.53-10.846,3.951-16.087c0.84,3.887,2.147,7.434,3.387,11.289c1.113,3.46,3.139,7.451,3.387,11.006
	c0.337,4.831-1.668,10.248-2.54,15.24c-0.883,5.054-1.397,10.007-2.54,14.958c0.251-0.125,0.505-0.248,0.564-0.564
	c0.67-1.196-0.385,1.653-0.282,2.54c2.285-3.829,4.509-7.721,6.491-11.853c0.355,3.812-0.048,7.584-0.282,11.289
	c-0.232,3.682,0.073,7.987-0.847,11.289c-0.64,2.296-3.568,6.599-5.08,8.749c-2.054,2.922-4.2,5.487-5.927,7.902
	c2.559-0.642,5.381-3.46,8.467-4.515c-1.037,4.325-2.235,8.489-3.104,12.982c-4.808,2.812-10.196,5.044-14.676,8.185
	c3.971-0.828,8.146-1.45,12.418-1.976c-2.573,3.918-4.954,8.028-7.902,11.571c-4.265-0.22-7.687,0.403-11.853,0.282
	c3.174,1.494,4.834,2.88,8.466,3.669c-3.73,2.29-8.122,3.919-11.853,6.209c-1.483-1.54-2.978-3.018-4.516-4.798
	c-1.012-1.171-3.601-3.607-3.951-5.08c-1.003-4.212,1.401-9.462,1.129-14.111c-0.321-5.464-2.815-9.111-3.104-13.829
	c-3.607,0.532-6.921,1.358-8.749,3.669c0.547,12.264,1.957,27.9,2.54,40.358c0.063,1.362-0.24,2.693,0,3.95
	c0.993,5.196,6.153,6.816,9.596,9.596c4.979,0.901,8.243-0.074,12.136-1.411c-3.776,4.516-9.661,7.087-13.547,11.571
	c-3.38,3.9-6.337,9.886-9.313,14.394c-9.108,13.792-19.205,29.356-23.707,47.413c-0.862-20.271-0.703-44.51-1.976-64.629
	c-0.42-6.642,0.697-11.657,1.693-17.216c0.501-2.793,1.106-6.287,1.976-8.466c1.553-3.895,5.075-7.331,7.338-10.725
	c2.608-3.911,4.018-7.849,6.209-11.854c-3.744-0.039-7.224-0.533-10.16,0.282c-4.363,1.211-8.47,7.227-12.7,9.031
	c-0.769,2.712-1.497,5.465-2.54,7.902c-1.59-1.891-1.753-5.209-2.822-7.62c-3.875-3.368-8.242-6.246-12.418-9.313
	c-3.74,0.071-6.605-0.732-10.442-0.564c2.024,4.187,3.587,8.204,6.208,12.136c2.275,3.412,5.812,6.842,7.338,10.725
	c0.879,2.236,1.466,5.675,1.976,8.466c0.957,5.241,2.039,9.726,1.693,16.651c-1.019,20.453-1.512,44.297-1.693,65.193
	c-4.194-11.171-8.012-23.49-14.393-33.02c-3.148-4.702-6.47-9.444-9.596-14.111c-3.194-4.77-5.612-10.173-9.031-14.394
	c-3.499-4.319-9.886-7.36-13.829-11.571c3.951,0.657,7.786,2.364,11.853,1.129c1.086-0.329,5.354-2.939,6.491-3.951
	c2.397-2.134,3.183-4.734,3.387-9.312c0.553-12.432,1.976-28.278,2.54-40.358c-1.793-2.439-5.125-3.341-8.749-3.951
	c-0.721,4.433-2.983,8.07-3.387,13.265c-0.371,4.768,1.986,9.979,1.129,14.394c-0.754,3.884-6.682,6.55-8.185,10.16
	c-4.077-1.944-7.901-4.14-12.135-5.927c3.314-1.171,4.999-2.465,8.467-3.669c-3.621-0.52-7.684-0.596-11.854-0.564
	c-2.986-3.411-5.103-7.691-7.902-11.289c3.676-0.193,8.419,0.986,12.136,1.693c-3.457-2.941-9.833-5.407-14.394-8.185
	c-0.91-4.451-2.043-8.681-3.104-12.982c3.143,1.278,5.558,3.286,8.467,4.797c-2.344-3.775-5.863-7.494-8.467-12.417
	c-0.835-1.581-2.176-3.209-2.54-4.516c-0.918-3.297-0.618-7.676-0.846-11.289c-0.234-3.705-0.396-7.3-0.564-11.289
	c2.285,3.829,4.509,7.721,6.491,11.853C67.514,123.744,66.645,122.4,66.518,121.754z"/>
<g display="none">
	<path display="inline" fill-rule="evenodd" clip-rule="evenodd" fill="#27AAE1" d="M93.471,33.705
		c-0.449,1.814-0.285,4.241-1.358,5.431C92.672,37.432,90.793,33.291,93.471,33.705z"/>
	<path display="inline" fill-rule="evenodd" clip-rule="evenodd" fill="#27AAE1" d="M93.471,33.705c0.226,0,0.453,0,0.679,0
		c11.912,37.639,34.867,64.234,58.374,90.277c-3.8,6.155-10.045,9.865-13.575,16.29c-31.478-13.548-43.194-46.855-46.835-88.24
		c0-4.299,0-8.598,0-12.896C93.186,37.946,93.021,35.52,93.471,33.705z"/>
	<path display="inline" fill-rule="evenodd" clip-rule="evenodd" fill="#27AAE1" d="M212.935,33.705c0.226,0,0.452,0,0.679,0
		c2.306,39.283-5.968,79.214-29.188,96.386c-6.784,5.017-14.395,8.843-21.721,14.933c-20.275,16.852-33.002,39.5-44.12,67.199
		c-4.556,11.351-9.525,20.441-10.86,35.296c-2.996,1.981-5.26,4.694-8.824,6.108c-0.905,0-1.81,0-2.715,0
		c0.081-3.174-1.868-5.576-4.073-8.146c0-1.583,0-3.167,0-4.752c4.455-3.53,5.926-13.687,4.751-19.004
		c2.303-2.067,5.858,0.518,6.109-2.716c2.671-11.583,8.59-19.919,10.182-32.581c4.304-1.391,9.814-4.449,10.182-9.503
		c0.269-3.706-1.945-3.927-2.037-6.788C147.887,120.704,195.624,92.417,212.935,33.705z"/>
	<path display="inline" fill-rule="evenodd" clip-rule="evenodd" fill="#27AAE1" d="M210.897,253.627c-0.904,0-1.81,0-2.714,0
		c0-0.226,0-0.453,0-0.679c-4.508-0.471-6.198-3.758-8.824-6.108c-3.278-18.832-10.008-35.714-19.006-54.303
		c-2.968-6.13-6.679-13.023-11.54-20.362c-1.842-2.782-14.49-16.235-14.253-18.327c0.453-4.006,12.36-8.403,14.253-10.86
		c6.061,9.099,11.904,18.414,17.648,27.829c-7.293,6.332,1.935,14.315,7.467,16.291c1.855,12.624,8.117,20.844,10.182,33.26
		c1.891,0.168,4.719,0.404,6.787,2.037c-0.509,1.931-2.479,4.646-1.357,6.108c3.107,2.232,0.706,7.02,2.036,10.182
		c1.278,3.038,3.431,0.993,3.395,4.751C214.932,247.471,210.514,249.245,210.897,253.627z"/>
	<path display="inline" fill-rule="evenodd" clip-rule="evenodd" fill="#27AAE1" d="M159.311,185.75
		c5.308,1.934,6.86,7.621,10.861,10.86c1.504,12.224-1.783,22.987-13.576,19.684C152.229,204.273,159.859,195.41,159.311,185.75z"/>
	<path display="inline" fill-rule="evenodd" clip-rule="evenodd" fill="#27AAE1" d="M134.875,202.72c2.695-0.321-0.308,3.174,0,4.75
		c4.997,5.459,10.369,25.521-2.036,24.438c-2.869-0.251-7.507-5.393-8.146-8.824C123.185,214.964,131.465,206.61,134.875,202.72z"/>
	<path display="inline" fill-rule="evenodd" clip-rule="evenodd" fill="#27AAE1" d="M172.887,202.72
		c9.602,4.93,16.114,22.646,4.072,29.188C159.496,229.292,174.916,212.797,172.887,202.72z"/>
	<path display="inline" fill-rule="evenodd" clip-rule="evenodd" fill="#27AAE1" d="M164.062,222.404
		c1.792,9.521,9.569,13.056,16.291,17.647c-0.858,2.943-4.062,7.948-8.146,8.824c-4.971,1.064-10.547-2.89-18.327-2.715
		c-6.069,0.134-11.767,3.471-16.291,2.715c-5.229-0.874-8.885-6.528-8.823-8.824c0.937-3.588,5.28-3.771,8.823-4.752
		c3.374-3.414,5.077-8.499,7.467-12.896C149.686,218.935,159.434,218.935,164.062,222.404z"/>
	<path display="inline" fill-rule="evenodd" clip-rule="evenodd" fill="#27AAE1" d="M92.113,245.481
		c2.205,2.569,4.153,4.972,4.073,8.146c-1.358,0-2.715,0-4.073,0C92.113,250.911,92.113,248.197,92.113,245.481z"/>
	<path display="inline" fill-rule="evenodd" clip-rule="evenodd" fill="#27AAE1" d="M149.13,185.75
		c-0.635,7.124,7.146,17.967,3.394,30.544C131.303,220.354,137.622,188.731,149.13,185.75z"/>
</g>
<path id="rogue" display="none" fill-rule="evenodd" clip-rule="evenodd" fill="#27AAE1" d="M149.231,49.927
	c-0.181,3.421,1.669,7.741,1.056,10.821c-0.447,2.244-2.623,2.308-3.167,4.223c1.298,2.837,3.923,4.347,3.695,8.709
	c7.198,0.658,10.93-1.589,15.307-4.223c6.249-3.76,12.644-7.383,18.737-11.348c2.984-0.184,5.604-0.732,8.182-1.32
	c12.08,5.516,25.441,9.748,39.324,13.46c-8.193,6.059-15.002,13.501-22.17,20.585c-10.363,1.819-20.402,5.915-29.822,9.501
	c-3.141,1.196-6.713,2.971-9.5,3.431c-8.344,1.376-11.17-6.482-19.002-7.125c-0.195,10.172-1.863,20.717-2.903,30.878
	c6.325,0.772,12.35-2.418,17.154-3.167c-1.114,3.635-3.226,6.276-4.486,9.765c-1.927-0.8-2.576-2.878-4.223-3.959
	c-1.655,0.192-3.472,0.224-4.751,0.792c0.098,3.174-0.053,8.838,2.111,10.82c-2.016,32.049-1.832,66.646-3.694,100.288
	c-0.423,7.642-3.182,14.981-3.959,22.433c-4.566-14.683-5-33.918-5.806-52.255c-0.848-19.295-1.821-38.723-2.639-56.742
	c-0.202-4.454,0.184-9.388-0.792-13.196c2.176-2.311,1.758-7.215,2.375-11.084c-0.891-0.957-3.333-0.361-4.486-1.056
	c-2.076,0.677-3.019,3.809-4.75,3.959c-1.396-3.267-3.367-5.958-4.487-9.501c4.829,0.809,10.13,3.412,16.891,3.167
	c-0.266-10.139-3.348-20.779-2.639-31.934c-6.683,0.068-11.444,6.124-16.626,7.654c-5.041,1.488-10.239-1.539-14.516-3.167
	c-6.288-2.394-12.051-5.016-19.002-6.862c-3.447-0.916-7.402-1.27-10.292-2.639c-3.061-1.451-6.548-5.756-9.237-8.445
	c-4.653-4.654-8.174-8.666-13.724-11.876c13.518-4.165,27.374-7.991,39.324-13.724c2.642,0.525,5.161,1.173,8.181,1.32
	c6.174,3.773,12.182,7.503,18.738,11.348c2.041,1.197,4.38,3.101,6.334,3.695c3.386,1.03,7.159-0.073,11.084,0.528
	c0.138-3.659,2.004-5.968,3.958-8.445c-0.71-1.753-2.472-2.454-3.431-3.958c0.484-3.65,0.571-7.698,1.056-11.349
	C144.965,49.28,147.167,49.072,149.231,49.927z M104.63,77.11c-2.599,1.799-6.071,2.726-8.709,4.486
	c8.778,2.03,15.488,7.281,26.128,6.598C116.624,84.119,110.636,80.605,104.63,77.11z M184.859,77.11
	c-5.498,3.826-11.73,6.918-16.89,11.084c10.589,0.826,16.806-4.771,25.864-6.334C191.59,79.53,187.682,78.863,184.859,77.11z"/>
<path id="socerer" display="none" fill-rule="evenodd" clip-rule="evenodd" fill="#27AAE1" d="M142.591,20.653
	c0.403,0,0.806,0,1.209,0c4.144,17.145,4.531,35.515,8.462,52.588c2.166,9.407,5.985,18.98,9.066,28.41
	c5.991,18.331,16.836,34.116,21.761,53.193c2.542,9.843,6.589,19.23,8.463,29.015c6.177,32.246-7.262,61.771-28.41,71.932
	c-20.399,9.801-43.774,0.097-53.797-11.485c-12.676-14.648-19.029-38.609-13.903-62.26c1.056-4.87,3.906-10.223,5.44-15.716
	c1.608-5.759,1.992-11.756,3.627-16.925c3.896-12.315,12.404-23.386,17.53-36.873c10.809-28.438,16.908-60.921,19.947-90.065
	C141.935,21.608,141.887,20.754,142.591,20.653z M140.778,180.231c-1.018,5.26-4.495,6.773-7.858,10.881
	c-0.631-4.967,1.641-9.216,0-13.299c-3.567,2.881-5.745,7.151-8.463,10.881c-1.688,9.977,1.39,16.771,1.813,23.574
	c0.458-3.278-3.578-2.064-5.44-3.022c-0.113-2.306,0.349-5.186-1.813-5.44c-4.042,11.695,7.196,12.808,6.649,22.97
	c5.401,8.3,15.808,6.097,25.388,8.463c0.833-0.779,0.599-2.626,0.604-4.231c4.251-1.189,7.132-3.749,11.484-4.836
	c1.597-4.902,6.726-18.859-1.209-20.552c-1.665,2.303,0.954,5.244-0.604,7.254c-2.416-0.595-3.628-0.595-6.044,0
	c-1.335,1.889-0.652,5.795-2.418,7.253c0.192-1.401-0.098-2.32-0.604-3.022c6.155-7.163,8.553-23.103,0.604-30.223
	c0.021-2.641,0.223-5.462-1.209-6.649c-2.88,5.784,1.118,18.446-5.44,20.552c0.172-10.167,1.032-23.152-1.813-35.059
	c-0.842-3.527-3.771-6.432-4.231-9.672c-0.472-3.327,2.048-6.272-0.604-8.462C135.041,158.292,142.628,170.669,140.778,180.231z"/>
<g>
	<path fill-rule="evenodd" clip-rule="evenodd" fill="#27AAE1" d="M135.87,17.651c1.349,12.95,0.753,25.519,1.761,38.147
		c0.807,10.122,4.409,20.004,5.282,29.344c-1.547,1.876-4.943,1.904-6.749,3.521c-2.37-1.054-4.863-1.984-7.042-3.228
		c0.523-9.674,4.501-19.804,5.282-29.931c0.96-12.468,0.682-24.416,1.174-36.974C135.92,18.483,135.824,17.996,135.87,17.651z"/>
	<path fill-rule="evenodd" clip-rule="evenodd" fill="#27AAE1" d="M94.788,72.23c6.859,6.932,14.74,14.408,20.541,21.421
		c-5.493-0.277-9.394-2.148-14.378-2.935C98.94,84.51,96.759,78.476,94.788,72.23z"/>
	<path fill-rule="evenodd" clip-rule="evenodd" fill="#27AAE1" d="M107.993,153.22c-8.325,10.356-17.539,19.825-25.823,30.224
		c1.737-7.946,5.891-16.019,8.216-24.355c4.667-3.94,9.814-7.4,14.379-11.444C106.736,148.607,106.855,151.423,107.993,153.22z"/>
	<path fill-rule="evenodd" clip-rule="evenodd" fill="#27AAE1" d="M190.156,183.443c-8.814-9.868-17.488-19.876-26.116-29.931
		c0.461-2.277,1.446-4.031,2.641-5.575c5.481,3.029,9.531,7.488,14.672,10.857C184.142,167.156,187.268,175.181,190.156,183.443z"/>
	<path fill-rule="evenodd" clip-rule="evenodd" fill="#27AAE1" d="M145.847,157.621c-0.775,8.094-4.062,16.947-4.989,25.235
		c-0.885,7.915-0.878,16.357-1.174,24.649c-0.855,23.99-2.811,49.229-3.521,73.359c-1.447-15.151-1.567-31.437-2.641-47.83
		c-1.069-16.312-0.894-32.878-2.348-48.418c-0.871-9.312-4.257-18.314-4.988-26.996c3.346-0.242,6.206-2.532,9.39-2.641
		C139.059,154.861,142.214,157.397,145.847,157.621z"/>
	<path fill-rule="evenodd" clip-rule="evenodd" fill="#27AAE1" d="M123.251,163.49c-6.073,16.521-12.961,32.229-19.073,48.711
		c1.871-17.398,5.691-35.391,8.216-53.113c-0.054-0.249,0.114-0.276,0.293-0.293C116.41,159.002,119.583,162.256,123.251,163.49z"/>
	<path fill-rule="evenodd" clip-rule="evenodd" fill="#27AAE1" d="M159.051,158.501c3.603,17.33,5.932,35.934,9.097,53.7
		c-6.828-15.669-12.929-32.066-19.367-48.124C151.56,161.573,155.286,160.019,159.051,158.501z"/>
	<path fill-rule="evenodd" clip-rule="evenodd" fill="#27AAE1" d="M176.951,72.23c-1.485,5.558-3.977,12.651-6.162,18.486
		c-4.789,0.885-8.734,2.613-14.085,2.935c-0.234-0.969,1.027-1.908,1.76-2.641C164.292,85.183,171.236,78.371,176.951,72.23z"/>
	<path fill-rule="evenodd" clip-rule="evenodd" fill="#27AAE1" d="M135.576,95.706c2.72,1.681,4.947,3.856,8.803,4.401
		c1.319-0.28,0.805-2.12,0.587-3.228c7.581,5.307,13.87,13.221,26.997,12.031c-0.906,6.775,4.623,7.115,9.39,8.216
		c-5.407,1.647-11.646,5.521-16.139,8.803c-5.73,4.186-10.781,7.592-14.086,13.205c-6.453-1.487-8.019,3.722-12.618,4.989
		c-1.18,0.971-0.765,3.539-2.934,3.521c-1.388-0.373-0.955-2.566-2.054-3.228c-4.382-1.577-6.167-6.677-12.618-5.282
		c-4.348-6.03-11.774-12.229-18.78-16.433c-4.083-2.449-6.939-4.327-11.444-5.282c4.267-1.7,10.326-1.607,9.39-8.51
		c12.905,1.083,19.339-6.618,26.703-12.031c0,0.978,0,1.956,0,2.934C130.388,100.237,133.693,97.977,135.576,95.706z
		 M122.371,111.551c-9.946,17.007,13.081,31.229,24.942,19.367c3.856-3.856,6.519-13.472,2.054-19.367
		c-4.314,0.283-7.412,1.783-10.857,2.934c2.927,6.376-0.396,11.876-2.641,17.02c-2.004-5.582-5.663-10.702-2.348-17.02
		C129.969,113.344,126.821,111.796,122.371,111.551z"/>
</g>
<g id="wizard" display="none">
	<path display="inline" fill-rule="evenodd" clip-rule="evenodd" d="M155.459,23.755c0.578,2.214,1.048,6.37-0.271,8.144
		c-0.385-0.023-0.769-0.044-0.814,0.271C152.813,31.115,152.157,22.458,155.459,23.755z"/>
	<path display="inline" fill-rule="evenodd" clip-rule="evenodd" d="M181.247,31.356c0.9,2.558-0.54,4.802-2.715,5.157
		C178.6,33.957,178.757,31.489,181.247,31.356z"/>
	<path display="inline" fill-rule="evenodd" clip-rule="evenodd" d="M127.5,31.627c2.018,0.814,4.177,2.845,3.258,5.701
		C128.798,36.354,126.916,34.29,127.5,31.627z"/>
	<path display="inline" fill-rule="evenodd" clip-rule="evenodd" d="M195.091,50.629c0.295,2.557-1.941,2.583-3.8,2.986
		c0-0.724,0-1.448,0-2.171C192.096,50.809,193.777,49.881,195.091,50.629z"/>
	<path display="inline" fill-rule="evenodd" clip-rule="evenodd" d="M113.384,54.429c1.962,0.691,4.693,1.962,3.8,4.615
		C114.901,58.625,112.48,57.16,113.384,54.429z"/>
	<path display="inline" fill-rule="evenodd" clip-rule="evenodd" d="M217.894,117.406c-3.034,6.014-6.013,12.084-8.958,18.188
		c2.759-1.133,5.106-5.027,7.872-7.058c0.979,0.107,1.82,0.352,2.714,0.543c1.058,4.045-1.432,6.146-3.528,9.772
		c-3.784,6.546-5.714,15.216-8.687,22.259c-2.057,4.873-4.622,9.373-6.786,13.844c-2.331,4.814-5.343,9.215-7.058,13.573
		c-0.574,1.457-0.454,3.357-1.086,4.614c-0.944,1.878-3.376,2.933-4.615,4.615c-15.017,2.536-22.643,12.465-34.745,17.915
		c-0.684,0.68,0.312,1.066,0.271,1.9c-1.268,0.181-2.262,0.635-2.986,1.357c1.411,0.308,1.669,1.77,3.8,1.357
		c-1.759,2.327,1.831,3.147,0.814,5.429c-0.462-0.714-0.36-1.992-1.899-1.629c-1.342,3.816-2.921,7.395-4.344,11.13
		c-7.967,5.601-12.281,18.292-10.858,30.674c-5.512,4.465-13.806-1.645-19.001-4.071c-0.925,0.184,1.196,0.901,0.271,1.086
		c-4.25-0.063-7.74-2.888-11.401-4.615c-10.991-5.185-22.958-9.406-34.203-14.658c2.286-4.35,7.271-6.709,9.772-11.13
		c2.651-4.687,3.728-10.175,6.515-15.201c9.104-0.216,12.644-5.996,15.473-12.486c4.885,1.268,9.468,2.837,14.658,3.8
		c1.947-1.582,3.842-3.215,6.244-4.343c-0.408-4.842,2.951-5.916,4.343-8.958c9.306-0.828,15.016-5.253,22.259-8.144
		c7.409-11.683,15.301-22.883,23.616-33.66c2.59-0.577,4.468-1.866,7.058-2.443c1.177,0.452,1.565,1.692,2.172,2.715
		c-2.699,5.987-6.211,11.162-7.602,18.459c4.563-3.942,7.352-12.012,10.315-18.459c-1.958-3.407,0.728-10.789,2.443-14.658
		c0.015-0.034,0.206-0.44,0.271-0.543c4.079-6.472,7.96-12.784,13.029-16.83c1.15,0.207,1.582,1.132,2.443,1.629
		c-0.438,1.915-1.489,3.216-1.9,5.157c3.113-3.311,5.489-9.711,10.044-12.486C215.808,116.415,216.82,116.94,217.894,117.406z"/>
	<path display="inline" fill-rule="evenodd" clip-rule="evenodd" d="M159.803,172.511c0.462-0.1,0.512,0.212,0.543,0.543
		c-3.17,3.888-5.698,8.418-8.687,12.486c-8.115,2.02-12.305,7.964-21.716,8.687c1.526-4.488,3.903-6.889,7.058-10.044
		c1.235-1.235,2.353-2.86,3.529-3.528c2.704-1.536,6.554-2.304,9.772-3.529C153.611,175.865,157.041,174.124,159.803,172.511z"/>
	<path display="inline" fill-rule="evenodd" clip-rule="evenodd" d="M159.803,67.459c1.337,1.296,1.606,4.262,0.814,6.243
		c-1.105-0.13-2.729-1.933-4.615-2.171c-2.609,0.94-3.533,3.719-2.443,7.058c3.707,3.278,8.465-1.283,13.302-1.629
		c3.554-5.356,2.809-15.259-4.344-16.287c-7.128-1.024-17.212,0.642-20.087,4.615c-5.4,6.37-1.974,20.744,3.8,25.788
		c3.625,3.166,8.222,4.448,11.401,7.601c2.79,2.768,6.135,6.881,7.329,11.672c1.453,5.831,1.003,18.804-1.9,23.073
		c-1.889,2.778-6.732,5.507-7.058,8.687c-0.146,1.423,2.582,4.717,0,4.615c1.106,1.631,2.027,3.358,0.271,3.8
		c0.432,1.671,0.772,2.234,0.271,2.986c-1.984,0.345-3.982-3.191-4.343-5.7c-1.077-7.495,2.491-17.572,5.972-21.173
		c1.602-6.595,2.117-15.61-1.9-20.087c-1.092-1.217-3.161-2.57-4.886-3.8c-1.816-1.296-3.935-1.815-5.701-2.986
		c-1.169-0.775-1.77-2.117-2.714-2.715c-2.772-1.755-5.953-2.003-7.872-4.343c-7.135-8.698-6.523-28.166,1.628-36.103
		c2.043-1.989,5.146-2.404,6.787-4.886c3.902-0.985,7.85-2.115,11.672-2.172c7.295-0.108,13.41,1.553,17.645,6.243
		c5.883,6.517,4.829,22.45-1.086,28.774c-1.961,2.097-5.079,2.392-7.601,3.8c-1.594-1.108-3.621-0.281-5.429-0.542
		c-3.651-0.528-8.328-4.127-9.501-6.787C146.414,74.681,151.738,64,159.803,67.459z"/>
</g>
</svg>
